<svg width="900" height="1200" viewBox="0 0 900 1200" fill="none" xmlns="http://www.w3.org/2000/svg">
  <rect width="900" height="1200" fill="#EAF7FA"/>
  <rect x="86" y="114" width="728" height="912" rx="64" fill="#FFF9EF"/>
  <path d="M116 294C246 210 334 344 464 282C584 224 704 224 804 306" stroke="#126C86" stroke-width="18" stroke-linecap="round"/>
  <path d="M98 582C246 454 376 682 522 542C642 428 734 486 820 570" stroke="#1F7A4D" stroke-width="14" stroke-linecap="round"/>
  <path d="M110 816C220 734 364 858 506 796C650 732 730 748 810 824" stroke="#E3B23C" stroke-width="15" stroke-linecap="round"/>
  <circle cx="202" cy="298" r="34" fill="#126C86"/>
  <circle cx="388" cy="318" r="34" fill="#D85C4A"/>
  <circle cx="602" cy="260" r="34" fill="#1F7A4D"/>
  <circle cx="734" cy="770" r="34" fill="#E3B23C"/>
  <path d="M0 1020C168 912 302 1038 468 952C604 882 734 898 900 1002V1200H0V1020Z" fill="#126C86" fill-opacity=".16"/>
</svg>
